<svg id="calendar" xmlns="http://www.w3.org/2000/svg" width="25.809" height="25.809" viewBox="0 0 25.809 25.809">
  <g id="Group_1327" data-name="Group 1327">
    <g id="Group_1326" data-name="Group 1326">
      <path id="Path_20352" data-name="Path 20352" d="M22.785,2.016h-1.21V0H19.559V2.016H6.251V0H4.234V2.016H3.025A3.028,3.028,0,0,0,0,5.041V22.785a3.028,3.028,0,0,0,3.025,3.025h19.76a3.028,3.028,0,0,0,3.025-3.025V5.041A3.028,3.028,0,0,0,22.785,2.016Zm1.008,20.768a1.009,1.009,0,0,1-1.008,1.008H3.025a1.009,1.009,0,0,1-1.008-1.008V9.477H23.793Zm0-15.324H2.016V5.041A1.009,1.009,0,0,1,3.025,4.033h1.21V6.049H6.251V4.033H19.559V6.049h2.016V4.033h1.21a1.009,1.009,0,0,1,1.008,1.008Z" fill="#4f4f4f"/>
    </g>
  </g>
  <g id="Group_1329" data-name="Group 1329" transform="translate(3.673 12.333)">
    <g id="Group_1328" data-name="Group 1328" transform="translate(0 0)">
      <rect id="Rectangle_1061" data-name="Rectangle 1061" width="1.961" height="1.961" fill="#4f4f4f"/>
    </g>
  </g>
  <g id="Group_1331" data-name="Group 1331" transform="translate(7.594 12.333)">
    <g id="Group_1330" data-name="Group 1330" transform="translate(0 0)">
      <rect id="Rectangle_1062" data-name="Rectangle 1062" width="3.921" height="1.961" fill="#4f4f4f"/>
    </g>
  </g>
  <g id="Group_1333" data-name="Group 1333" transform="translate(11.516 12.333)">
    <g id="Group_1332" data-name="Group 1332" transform="translate(0 0)">
      <rect id="Rectangle_1063" data-name="Rectangle 1063" width="1.961" height="1.961" fill="#4f4f4f"/>
    </g>
  </g>
  <g id="Group_1335" data-name="Group 1335" transform="translate(15.437 12.333)">
    <g id="Group_1334" data-name="Group 1334" transform="translate(0 0)">
      <rect id="Rectangle_1064" data-name="Rectangle 1064" width="1.961" height="1.961" fill="#4f4f4f"/>
    </g>
  </g>
  <g id="Group_1337" data-name="Group 1337" transform="translate(19.359 12.333)">
    <g id="Group_1336" data-name="Group 1336" transform="translate(0 0)">
      <rect id="Rectangle_1065" data-name="Rectangle 1065" width="1.961" height="1.961" fill="#4f4f4f"/>
    </g>
  </g>
  <g id="Group_1339" data-name="Group 1339" transform="translate(3.673 14.293)">
    <g id="Group_1338" data-name="Group 1338" transform="translate(0 0)">
      <rect id="Rectangle_1066" data-name="Rectangle 1066" width="1.961" height="3.921" fill="#4f4f4f"/>
    </g>
  </g>
  <g id="Group_1341" data-name="Group 1341" transform="translate(7.594 14.293)">
    <g id="Group_1340" data-name="Group 1340" transform="translate(0 0)">
      <rect id="Rectangle_1067" data-name="Rectangle 1067" width="3.921" height="3.921" fill="#4f4f4f"/>
    </g>
  </g>
  <g id="Group_1343" data-name="Group 1343" transform="translate(11.516 14.293)">
    <g id="Group_1342" data-name="Group 1342" transform="translate(0 0)">
      <rect id="Rectangle_1068" data-name="Rectangle 1068" width="1.961" height="3.921" fill="#4f4f4f"/>
    </g>
  </g>
  <g id="Group_1345" data-name="Group 1345" transform="translate(15.437 14.293)">
    <g id="Group_1344" data-name="Group 1344" transform="translate(0 0)">
      <rect id="Rectangle_1069" data-name="Rectangle 1069" width="1.961" height="3.921" fill="#4f4f4f"/>
    </g>
  </g>
  <g id="Group_1347" data-name="Group 1347" transform="translate(3.673 20.175)">
    <g id="Group_1346" data-name="Group 1346" transform="translate(0 0)">
      <rect id="Rectangle_1070" data-name="Rectangle 1070" width="1.961" height="1.961" fill="#4f4f4f"/>
    </g>
  </g>
  <g id="Group_1349" data-name="Group 1349" transform="translate(7.594 20.175)">
    <g id="Group_1348" data-name="Group 1348" transform="translate(0 0)">
      <rect id="Rectangle_1071" data-name="Rectangle 1071" width="3.921" height="1.961" fill="#4f4f4f"/>
    </g>
  </g>
  <g id="Group_1351" data-name="Group 1351" transform="translate(11.516 20.175)">
    <g id="Group_1350" data-name="Group 1350" transform="translate(0 0)">
      <rect id="Rectangle_1072" data-name="Rectangle 1072" width="1.961" height="1.961" fill="#4f4f4f"/>
    </g>
  </g>
  <g id="Group_1353" data-name="Group 1353" transform="translate(15.437 20.175)">
    <g id="Group_1352" data-name="Group 1352" transform="translate(0 0)">
      <rect id="Rectangle_1073" data-name="Rectangle 1073" width="1.961" height="1.961" fill="#4f4f4f"/>
    </g>
  </g>
  <g id="Group_1355" data-name="Group 1355" transform="translate(19.359 14.293)">
    <g id="Group_1354" data-name="Group 1354" transform="translate(0 0)">
      <rect id="Rectangle_1074" data-name="Rectangle 1074" width="1.961" height="3.921" fill="#4f4f4f"/>
    </g>
  </g>
</svg>
