<svg xmlns="http://www.w3.org/2000/svg" width="413.742" height="75.689" viewBox="0 0 413.742 75.689">
  <g id="Logo" transform="translate(-4.44 -39.398)">
    <path id="Path_1" data-name="Path 1" d="M4.44,39.41H64.569V57.249H24.875V68.71H56.916V85.253H24.875v12H64.569v17.839H4.44Z" transform="translate(0 -0.01)" fill="#01599a"/>
    <path id="Path_2" data-name="Path 2" d="M1335.6,39.41h60.129V57.249h-39.692V68.71h32.041V85.253h-32.041v12h39.694v17.839H1335.6Z" transform="translate(-1042.97 -0.01)" fill="#01599a"/>
    <path id="Path_3" data-name="Path 3" d="M1004.219,115.085a40.461,40.461,0,0,1-15.085-2.814,36.932,36.932,0,0,1-12.251-7.85,37.634,37.634,0,0,1-8.238-11.955A36.814,36.814,0,0,1,965.6,77.443v-.216a36.854,36.854,0,0,1,3-14.815,37.27,37.27,0,0,1,20.688-20.1,41.879,41.879,0,0,1,15.782-2.912,46.5,46.5,0,0,1,10.485,1.082,36.563,36.563,0,0,1,8.612,3.12,34.479,34.479,0,0,1,7.062,4.834,40.254,40.254,0,0,1,5.616,6.133l-15.62,11.747a26.732,26.732,0,0,0-7.062-6.237,17.905,17.905,0,0,0-9.309-2.286,17.025,17.025,0,0,0-7.222,1.515,17.252,17.252,0,0,0-5.616,4.113,19.087,19.087,0,0,0-3.691,6.133,20.956,20.956,0,0,0-1.338,7.486v.216a21.671,21.671,0,0,0,1.338,7.642,18.943,18.943,0,0,0,3.691,6.185,17.2,17.2,0,0,0,5.616,4.113,17,17,0,0,0,7.222,1.515,21.089,21.089,0,0,0,5.3-.624,16.38,16.38,0,0,0,4.386-1.819,23.668,23.668,0,0,0,3.743-2.814,42.679,42.679,0,0,0,3.483-3.611l15.62,10.812a54.649,54.649,0,0,1-5.83,6.549,33.467,33.467,0,0,1-7.168,5.2,38.1,38.1,0,0,1-8.987,3.431A45.912,45.912,0,0,1,1004.219,115.085Z" transform="translate(-753.07)" fill="#01599a"/>
    <path id="Path_4" data-name="Path 4" d="M1652.15,39.41H1672.9V96.716h36.27v18.378H1652.15Z" transform="translate(-1290.989 -0.01)" fill="#01599a"/>
    <path id="Path_5" data-name="Path 5" d="M443.346,76.39l25.678-36.98h-23.86l-13.91,21.3-13.267-21.3h-39.22L360.9,68.713l-17.867-29.3H321.1V115.1h20.435V66.885l18.991,29.738h.429l19.084-29.738H400.7V49.345l18.036,27.261L400.7,103.64V87.621H380.052V115.1h37.936l12.84-22.814L445.165,115.1h23.86Z" transform="translate(-248.105 -0.01)" fill="#01599a"/>
  </g>
</svg>
