<svg xmlns="http://www.w3.org/2000/svg" xmlns:xlink="http://www.w3.org/1999/xlink" width="338.462" height="103.254" viewBox="0 0 338.462 103.254">
  <defs>
    <linearGradient id="linear-gradient" x1="0.5" y1="0.002" x2="0.5" y2="1.148" gradientUnits="objectBoundingBox">
      <stop offset="0.097" stop-color="#ffd879"/>
      <stop offset="0.154" stop-color="#fccb76"/>
      <stop offset="0.258" stop-color="#f5aa6c"/>
      <stop offset="0.398" stop-color="#e9755e"/>
      <stop offset="0.449" stop-color="#e45f58"/>
      <stop offset="0.679" stop-color="#d22a9c"/>
      <stop offset="1" stop-color="#6968df"/>
    </linearGradient>
  </defs>
  <g id="Group_1463" data-name="Group 1463" transform="translate(-5873 -1293)">
    <path id="Subtraction_2" data-name="Subtraction 2" d="M16,32A16,16,0,0,1,4.686,4.687,16,16,0,0,1,27.314,27.314,15.9,15.9,0,0,1,16,32ZM14,11.965V21.984H17.01V16.566A2.375,2.375,0,0,1,19.373,14.3c1.087,0,1.638.752,1.638,2.235v5.445h3V16.315c0-3.854-1.8-4.663-3.318-4.663a4.5,4.5,0,0,0-3.678,1.7v-1.39ZM9.016,12v9.986h3V12ZM10.5,8A1.5,1.5,0,1,0,12,9.5,1.5,1.5,0,0,0,10.5,8Z" transform="translate(5938 1364)" fill="#fff"/>
    <path id="Subtraction_3" data-name="Subtraction 3" d="M16,32.007A16,16,0,0,1,4.687,4.687,16,16,0,0,1,27.32,27.32,15.9,15.9,0,0,1,16,32.007ZM7.162,23.141h0a10.879,10.879,0,0,0,16.747-9.166c0-.165,0-.332-.011-.495a7.727,7.727,0,0,0,1.909-1.98,7.633,7.633,0,0,1-2.2.6,3.829,3.829,0,0,0,1.683-2.116,7.67,7.67,0,0,1-2.429.928A3.828,3.828,0,0,0,16.344,14.4a10.894,10.894,0,0,1-7.885-4,3.828,3.828,0,0,0,1.183,5.107,3.825,3.825,0,0,1-1.732-.479v.049a3.833,3.833,0,0,0,3.068,3.75,3.8,3.8,0,0,1-1.007.135,3.884,3.884,0,0,1-.72-.068,3.826,3.826,0,0,0,3.573,2.657,7.714,7.714,0,0,1-5.662,1.583Z" transform="translate(6003 1363)" fill="#fff"/>
    <path id="Subtraction_4" data-name="Subtraction 4" d="M16,32A16,16,0,0,1,4.686,4.686,16,16,0,1,1,27.314,27.314,15.9,15.9,0,0,1,16,32ZM12.662,8.417a4.25,4.25,0,0,0-4.244,4.245v6.676a4.249,4.249,0,0,0,4.244,4.244h6.676a4.249,4.249,0,0,0,4.244-4.244V12.662a4.25,4.25,0,0,0-4.244-4.245Zm6.676,14.122H12.662a3.2,3.2,0,0,1-3.2-3.2V12.662a3.2,3.2,0,0,1,3.2-3.2h6.676a3.2,3.2,0,0,1,3.2,3.2v6.676A3.2,3.2,0,0,1,19.338,22.539ZM16,12.122A3.878,3.878,0,1,0,19.878,16,3.882,3.882,0,0,0,16,12.122Zm4.43-.889a.482.482,0,1,0,.482.482A.483.483,0,0,0,20.43,11.233ZM16,18.834A2.834,2.834,0,1,1,18.834,16,2.838,2.838,0,0,1,16,18.834Z" transform="translate(6068.328 1364)" fill="#fff"/>
    <path id="Subtraction_1" data-name="Subtraction 1" d="M16,32A16,16,0,0,1,4.687,4.687,16,16,0,1,1,27.316,27.316,15.9,15.9,0,0,1,16,32ZM10.785,12.951v3.677h2.058V27.088h4.325V16.628h2.856l.377-3.673H17.168V10.791a.884.884,0,0,1,.918-1h2.325V6.221l-3.2-.013a4.057,4.057,0,0,0-4.364,4.365v2.379Z" transform="translate(5873 1364)" fill="#fff"/>
    <g id="facebook_1_" data-name="facebook (1)" transform="translate(5873 1294)">
      <circle id="Ellipse_9" data-name="Ellipse 9" cx="16.001" cy="16.001" r="16.001" transform="translate(0 0)" fill="#3b5998"/>
      <path id="Path_20357" data-name="Path 20357" d="M47.051,32.183H44.2v10.46H39.869V32.183H37.812V28.507h2.057V26.128a4.056,4.056,0,0,1,4.364-4.365l3.2.013v3.568H45.113a.881.881,0,0,0-.918,1V28.51h3.233Z" transform="translate(-27.027 -15.555)" fill="#fff"/>
    </g>
    <path id="Path_20591" data-name="Path 20591" d="M16,0A16,16,0,1,1,0,16,16,16,0,0,1,16,0Z" transform="translate(5938 1294)" fill="#0e76a8"/>
    <path id="Path_20592" data-name="Path 20592" d="M81.949,86.814h3V76.828h-3ZM93.621,76.482a4.5,4.5,0,0,0-3.678,1.7V76.8H86.936V86.814h3.007V81.4a2.378,2.378,0,0,1,2.363-2.262c1.314,0,1.638,1.117,1.638,2.234v5.445h3V81.145C96.94,77.208,95.076,76.482,93.621,76.482ZM83.433,75.83a1.5,1.5,0,1,0-1.5-1.5A1.5,1.5,0,0,0,83.433,75.83Z" transform="translate(5865.067 1230.17)" fill="#fff"/>
    <circle id="Ellipse_20" data-name="Ellipse 20" cx="16.004" cy="16.004" r="16.004" transform="translate(6003 1293)" fill="#55acee"/>
    <g id="Group_1457" data-name="Group 1457" transform="translate(6010.161 1302)">
      <path id="Path_20361" data-name="Path 20361" d="M43.748,35.822a7.632,7.632,0,0,1-2.2.6,3.836,3.836,0,0,0,1.682-2.116,7.658,7.658,0,0,1-2.429.928,3.829,3.829,0,0,0-6.519,3.49,10.859,10.859,0,0,1-7.885-4,3.83,3.83,0,0,0,1.184,5.107,3.8,3.8,0,0,1-1.732-.479c0,.016,0,.033,0,.048a3.828,3.828,0,0,0,3.069,3.751,3.84,3.84,0,0,1-1.727.066,3.829,3.829,0,0,0,3.573,2.657A7.722,7.722,0,0,1,25.1,47.462,10.879,10.879,0,0,0,41.85,38.3c0-.166,0-.331-.011-.495a7.757,7.757,0,0,0,1.909-1.98Z" transform="translate(-25.103 -34.028)" fill="#f1f2f2"/>
    </g>
    <circle id="Ellipse_21" data-name="Ellipse 21" cx="16" cy="16" r="16" transform="translate(6068.328 1294)" fill="url(#linear-gradient)"/>
    <path id="Path_20593" data-name="Path 20593" d="M24.162,28.041a3.878,3.878,0,1,1,3.879-3.878A3.883,3.883,0,0,1,24.162,28.041Zm0-6.712A2.834,2.834,0,1,0,27,24.162,2.837,2.837,0,0,0,24.162,21.329Z" transform="translate(6060.166 1285.715)" fill="#fff"/>
    <circle id="Ellipse_22" data-name="Ellipse 22" cx="0.482" cy="0.482" r="0.482" transform="translate(6088.275 1309)" fill="#fff"/>
    <path id="Path_20594" data-name="Path 20594" d="M27.656,31.9H20.98a4.249,4.249,0,0,1-4.245-4.245V20.98a4.25,4.25,0,0,1,4.245-4.245h6.676A4.25,4.25,0,0,1,31.9,20.98v6.676A4.25,4.25,0,0,1,27.656,31.9ZM20.98,17.779a3.205,3.205,0,0,0-3.2,3.2v6.676a3.2,3.2,0,0,0,3.2,3.2h6.676a3.2,3.2,0,0,0,3.2-3.2V20.98a3.205,3.205,0,0,0-3.2-3.2Z" transform="translate(6060.01 1285.265)" fill="#fff"/>
    <g id="Group_1461" data-name="Group 1461" transform="translate(0 -1)">
      <g id="Group_1458" data-name="Group 1458" transform="translate(1 -1)">
        <path id="Path_10" data-name="Path 10" d="M102.717,0H86.154a2.028,2.028,0,0,0-2.026,2.026V29.978A2.029,2.029,0,0,0,86.154,32h16.563a2.028,2.028,0,0,0,2.026-2.026V2.026A2.029,2.029,0,0,0,102.717,0ZM85.143,5.093h18.585V26.258H85.143Zm1.011-4.077h16.563a1.012,1.012,0,0,1,1.011,1.011v2.39H85.143V2.026A1.012,1.012,0,0,1,86.154,1.015Zm16.563,29.974H86.154a1.012,1.012,0,0,1-1.011-1.011V26.935h18.585v3.043A1.012,1.012,0,0,1,102.717,30.989Z" transform="translate(6037.872 1296)" fill="#4f4f4f" stroke="#4f4f4f" stroke-width="0.5"/>
        <path id="Path_11" data-name="Path 11" d="M213.5,404.552a1.663,1.663,0,1,0,1.663,1.663A1.665,1.665,0,0,0,213.5,404.552Zm0,2.649a.986.986,0,1,1,.986-.986A.987.987,0,0,1,213.5,407.2Z" transform="translate(5918.803 918.832)" fill="#4f4f4f" stroke="#4f4f4f" stroke-width="0.5"/>
        <path id="Path_12" data-name="Path 12" d="M197.744,38.322h4.6a.338.338,0,0,0,0-.677h-4.6a.338.338,0,0,0,0,.677Z" transform="translate(5932.262 1260.903)" fill="#4f4f4f" stroke="#4f4f4f" stroke-width="0.5"/>
        <path id="Path_13" data-name="Path 13" d="M179.747,38.322a.337.337,0,1,0-.24-.1A.34.34,0,0,0,179.747,38.322Z" transform="translate(5949.041 1260.903)" fill="#4f4f4f" stroke="#4f4f4f" stroke-width="0.5"/>
      </g>
    </g>
    <g id="Group_1462" data-name="Group 1462" transform="translate(0 69)">
      <g id="Group_1458-2" data-name="Group 1458" transform="translate(1 -1)">
        <path id="Path_10-2" data-name="Path 10" d="M102.717,0H86.154a2.028,2.028,0,0,0-2.026,2.026V29.978A2.029,2.029,0,0,0,86.154,32h16.563a2.028,2.028,0,0,0,2.026-2.026V2.026A2.029,2.029,0,0,0,102.717,0ZM85.143,5.093h18.585V26.258H85.143Zm1.011-4.077h16.563a1.012,1.012,0,0,1,1.011,1.011v2.39H85.143V2.026A1.012,1.012,0,0,1,86.154,1.015Zm16.563,29.974H86.154a1.012,1.012,0,0,1-1.011-1.011V26.935h18.585v3.043A1.012,1.012,0,0,1,102.717,30.989Z" transform="translate(6037.872 1296)" fill="#fff" stroke="#fff" stroke-width="0.5"/>
        <path id="Path_11-2" data-name="Path 11" d="M213.5,404.552a1.663,1.663,0,1,0,1.663,1.663A1.665,1.665,0,0,0,213.5,404.552Zm0,2.649a.986.986,0,1,1,.986-.986A.987.987,0,0,1,213.5,407.2Z" transform="translate(5918.803 918.832)" fill="#fff" stroke="#fff" stroke-width="0.5"/>
        <path id="Path_12-2" data-name="Path 12" d="M197.744,38.322h4.6a.338.338,0,0,0,0-.677h-4.6a.338.338,0,0,0,0,.677Z" transform="translate(5932.262 1260.903)" fill="#fff" stroke="#fff" stroke-width="0.5"/>
        <path id="Path_13-2" data-name="Path 13" d="M179.747,38.322a.337.337,0,1,0-.24-.1A.34.34,0,0,0,179.747,38.322Z" transform="translate(5949.041 1260.903)" fill="#fff" stroke="#fff" stroke-width="0.5"/>
      </g>
    </g>
    <g id="Group_226" data-name="Group 226" transform="translate(6185 1299)">
      <path id="Path_14" data-name="Path 14" d="M24.136,61H2.326A2.33,2.33,0,0,0,0,63.326V78.831a2.33,2.33,0,0,0,2.326,2.326H24.136a2.33,2.33,0,0,0,2.326-2.326V63.326A2.33,2.33,0,0,0,24.136,61Zm-.321,1.551L13.28,73.085,2.654,62.551ZM1.551,78.51V63.639l7.467,7.4Zm1.1,1.1,7.472-7.472,2.618,2.6a.775.775,0,0,0,1.094,0l2.553-2.553,7.431,7.431Zm22.265-1.1L17.48,71.078l7.431-7.432Z" transform="translate(0 -61)" fill="#4f4f4f"/>
    </g>
    <g id="Group_1460" data-name="Group 1460" transform="translate(6185 1369)">
      <path id="Path_14-2" data-name="Path 14" d="M24.136,61H2.326A2.33,2.33,0,0,0,0,63.326V78.831a2.33,2.33,0,0,0,2.326,2.326H24.136a2.33,2.33,0,0,0,2.326-2.326V63.326A2.33,2.33,0,0,0,24.136,61Zm-.321,1.551L13.28,73.085,2.654,62.551ZM1.551,78.51V63.639l7.467,7.4Zm1.1,1.1,7.472-7.472,2.618,2.6a.775.775,0,0,0,1.094,0l2.553-2.553,7.431,7.431Zm22.265-1.1L17.48,71.078l7.431-7.432Z" transform="translate(0 -61)" fill="#fff"/>
    </g>
  </g>
</svg>
